<?xml version="1.0" standalone="yes"?>
<svg width="1280" height="640">
<path style="fill:#ffffff; stroke:none;" d="M0 0L0 640L1280 640L1280 0L0 0z"/>
<path style="fill:#000000; stroke:none;" d="M736 66L736 102C761.069 91.5626 787.925 89.9299 806.471 114C826.824 140.415 806.396 181.35 774 184L774 185L868 186L868 185C825.195 184.882 809.641 125.881 844 102.221C856.267 93.7734 872.837 91.7163 887 96.0394C892.585 97.7442 900.099 104.09 905.945 103.469C910.522 102.983 911.225 96.1824 915 94L915 134C910.154 131.046 909.478 123.898 907.029 119C901.3 107.541 890.995 96.6564 877 98.9128C869.457 100.129 865.456 107.406 863.09 114C857.982 128.237 858.946 146.295 861.435 161C862.638 168.103 864.959 178.397 873.001 180.566C888.112 184.64 890.468 155.624 884.062 147.434C881.481 144.134 874.831 144.302 871 144L871 141L929 141C926.273 145.458 920.832 143.495 917.938 147.318C912.25 154.832 916 174.905 916 184L903 175.398L876 184L876 185L1064 186L1064 185L1028 184L1028 181C1046.23 180.215 1037.85 168.326 1035 156C1029.83 156 1017.92 153.771 1013.73 157.028C1010.06 159.877 1006.52 173.92 1009.61 177.683C1012.08 180.691 1017.44 180.718 1021 181L1021 184L932 184L932 181C936.109 180.823 942.087 180.79 944.427 176.772C947.26 171.907 946 164.395 946 159L946 120C946 114.676 947.288 107.054 944.566 102.228C942.375 98.3411 936.937 98.1716 933 98L933 95L990 95L990 98C986.409 98.0297 981.305 97.6963 978.603 100.564C975.439 103.921 976.007 111.72 976 116L976 156C976 161.853 973.935 176.022 980.228 179.297C986.581 182.603 998.078 180.929 1002.18 174.956C1013.93 157.854 1018.13 130.62 1024.67 111C1026.06 106.81 1026.98 100.768 1029.84 97.3179C1038.82 86.4885 1046.67 102.608 1049.05 109C1050.78 113.644 1052.47 118.286 1054 123L1055 123L1055 66L978 66L978 67C991.345 78.1244 959.963 88.7062 952 91C955.931 82.5212 964.627 72.7357 972 67L950 66L902 66L736 66z"/>
<path style="fill:#008aff; stroke:none;" d="M952 91C959.587 89.6475 972.907 84.4722 978.772 79.3619C981.706 76.8049 983.208 71.6749 980.397 68.4337C971.761 58.4756 953.92 84.1443 952 91z"/>
<path style="fill:#000000; stroke:none;" d="M175 94L175 95L219 95C227.642 95 238.286 94.7025 246 99.2276C261.625 108.394 263.594 132.157 247 141.633C236.409 147.681 220.733 145 209 145C209 160.45 203.857 180.135 224 181L224 184L175 184L175 185L310 186L310 185C301.696 184.977 295.143 182.821 288 178.597C284.688 176.639 279.244 171.828 275.109 172.817C270.496 173.921 270.297 181.265 270 185L267 185L267 141C274.567 145.405 277.186 162.649 283.465 169.961C289.356 176.821 298.797 181.854 308 181.82C317.332 181.786 322.678 172.592 317.972 164.105C314.908 158.578 305.471 156.588 300 154.4C282.294 147.317 261.058 137.177 269.109 114C270.648 109.57 273.72 105.731 277.171 102.619C281.392 98.8118 286.403 95.9977 292 95L256 94L175 94z"/>
<path style="fill:#008aff; stroke:none;" d="M267 141L267 185L270 185C270.486 181.242 270.982 173.623 276.044 173.252C281.876 172.825 289.614 180.589 295 182.743C309.782 188.655 331.652 183.553 338.468 168C348.946 144.09 325.804 130.008 307 122.95C300.318 120.442 287.106 116.554 286.287 107.999C285.278 97.4678 300.158 96.2338 307 98.8141C318.622 103.197 327.268 115.223 330 127L334 127L334 94L330 94C329.863 96.9553 329.808 102.176 325.867 102.62C320.603 103.213 313.971 96.9797 309 95.3596C294.673 90.6901 276.515 96.9432 269.919 111C268.109 114.856 268.005 118.825 268 123C267.975 143.679 285.297 148.919 302 155.6C308.397 158.159 316.415 160.442 319.87 167.004C323.779 174.426 315.95 181.059 309 181.61C299.883 182.332 290.149 176.484 284.3 169.961C279.643 164.767 276.058 158.45 273.453 152C271.767 147.826 271.639 142.626 267 141z"/>
<path style="fill:#000000; stroke:none;" d="M306 94L306 95L319 100L319 94L306 94M335 94L335.213 138L340.543 157L335 185L462 186L462 185C444.015 184.95 426.234 176.016 418.518 159C406.518 132.537 422.544 97.4878 453 95L417 94L335 94z"/>
<path style="fill:#008aff; stroke:none;" d="M498 150C496.798 155.988 494.989 161.832 491.643 167C482.182 181.619 464.488 182.707 455.477 167C447.602 153.272 447.098 133.981 451.144 119C453.725 109.441 460.184 97.2515 472 99.4305C482.587 101.383 488.11 111.856 491.588 121C493.228 125.312 494.19 132.594 499 134L499 95C494.866 96.2083 495.235 102.641 490.935 102.958C485.86 103.333 479.784 97.2854 475 95.7222C462.641 91.6836 446.074 93.6462 435 100.431C402.246 120.497 410.095 174.989 448 183.588C462.28 186.827 480.194 186.112 490.94 174.981C495.029 170.746 505.651 154.23 498 150z"/>
<path style="fill:#000000; stroke:none;" d="M470 94L470 95L492.581 102.867L499 95L499 134C488.158 127.392 491.148 108.292 478 101.14C464.803 93.9607 454.901 105.258 451.439 117C446.851 132.561 447.243 153.692 455.529 168C464.045 182.705 482.647 181.78 491.613 167.999C495.125 162.6 497.145 156.345 498 150C501.832 153.995 499.501 159.339 497.535 164C492.959 174.854 482.771 182.972 471 184L471 185L558 186L558 185C540.186 184.951 522.619 176.341 514.274 160C500.618 133.26 518.027 97.7045 549 95L524 94L470 94z"/>
<path style="fill:#008aff; stroke:none;" d="M549 94.439C516.436 99.5648 497.505 136.636 516.598 165C527.508 181.208 548.254 187.489 567 184.561C598.384 179.659 619.257 144.71 601.532 116C590.733 98.5093 568.653 91.3456 549 94.439z"/>
<path style="fill:#000000; stroke:none;" d="M567 94L567 95C619.578 99.295 619.473 179.708 567 184L567 185L696 186L696 185L615 184L615 181C619.281 180.816 625.407 180.803 628.062 176.852C631.25 172.107 630 164.405 630 159L630 120C630 114.443 631.054 107.25 628.347 102.147C626.103 97.9172 620.16 98.0859 616 98L616 95L675 95L675 98C670.883 98.0114 664.69 97.4585 661.988 101.303C658.092 106.847 660 117.602 660 124L660 180C668.876 180 679.661 180.247 685.397 171.907C689.007 166.658 687 156.121 687 150L687 94L567 94M703 94L703 146L704 146L709 140L709 184L703 184L703 185L765 186L765 185C754.128 184.97 745.675 181.496 736 177L736 185L716 185L716 177L735 177C730.995 171.758 725.741 167.822 722.349 162C709.195 139.426 719.637 120.829 734 103L716 103L716 94L703 94z"/>
<path style="fill:#008aff; stroke:none;" d="M756 94.439C723.401 99.5702 704.486 136.608 723.598 165C734.508 181.208 755.254 187.489 774 184.561C805.384 179.659 826.257 144.71 808.532 116C797.733 98.5093 775.653 91.3456 756 94.439M916 184C916 174.089 912.957 158.082 917.343 149.023C919.998 143.538 927.334 146.694 929 141L871 141L871 144C875.149 144.493 881.589 144.331 884.171 148.157C889.359 155.845 888.208 184.02 874 180.653C865.713 178.689 862.949 168.202 861.606 161C858.587 144.795 855.323 107.477 874.995 99.6157C888.958 94.036 901.678 109.226 907.065 120C909.251 124.373 909.944 132.522 915 134L915 94C910.491 95.5688 910.658 102.229 905.945 103.006C900.508 103.903 892.349 97.2475 887 95.7462C874.388 92.2062 859.698 93.3367 848 99.2731C814.978 116.03 817.9 170.318 853 182.91C862.277 186.238 874.805 186.199 884 182.522C889.219 180.434 894.196 175.624 900 175.318C906.85 174.957 910.137 182.117 916 184M164 95L164 98C168.345 98.0901 174.181 98.1747 176.86 102.228C180.064 107.073 179 114.507 179 120L179 159C179 164.485 180.069 171.937 176.86 176.772C174.253 180.701 168.238 180.818 164 181L164 184L224 184L224 181C204.234 179.438 209 160.391 209 145C220.967 145 237.209 147.816 247.999 141.633C263.976 132.477 261.695 106.719 246 98.6844C237.161 94.1593 225.615 95 216 95L164 95M348 95L348 98C351.897 98.3102 357.534 98.4929 359.821 102.228C362.573 106.723 361.998 114.903 362 120L362 158C362 163.33 362.632 171.125 359.973 175.941C357.622 180.2 352.336 180.654 348 181L348 184L405 184L405 181C400.784 180.455 395.595 180.048 393.318 175.891C390.536 170.811 392 162.601 392 157L392 121C392 115.749 390.913 108.988 392.894 104.019C394.936 98.8965 400.135 98.2126 405 98L405 95L348 95M616 95L616 98C620.563 98.1964 626.063 98.4213 628.347 103.059C630.949 108.34 630 115.308 630 121L630 158C630 163.565 631.15 170.98 628.062 175.941C625.319 180.348 619.68 180.63 615 181L615 184L709 184L709 140C702.515 142.215 699.328 153.504 695.641 159C686.299 172.926 676.752 180 660 180L660 125C660 118.318 658.225 108.071 661.988 102.144C664.696 97.8799 670.546 98.0369 675 98L675 95L616 95M933 95L933 98C937.247 98.3474 942.368 98.8919 944.566 103.109C947.191 108.143 946 115.518 946 121L946 158C946 163.557 947.156 170.811 944.427 175.891C942.047 180.324 936.481 180.643 932 181L932 184L1021 184L1021 181C1017.19 180.516 1012.05 180.33 1009.64 176.852C1006.95 172.967 1010.61 159.612 1014.43 157.028C1018.98 153.951 1029.65 156 1035 156C1036.8 168.212 1046.04 179.564 1028 181L1028 184L1086 184C1083.98 178.261 1075.58 177.74 1072.62 171C1062.4 147.711 1057.68 120.25 1045.21 98.1481C1043 94.2383 1034.09 93.5106 1030.51 96.0278C1026.29 98.9884 1024.9 109.304 1023.33 114C1017.12 132.638 1013.1 157.566 1002.18 173.985C998.305 179.815 990.628 181.541 984.004 180.162C974.379 178.159 976 165.621 976 158L976 118C976.002 113.197 975.353 105.256 978.603 101.303C981.266 98.0637 986.186 98.0792 990 98L990 95L933 95z"/>
<path style="fill:#000000; stroke:none;" d="M319 128C319 119.584 321.663 107.586 313.981 102.055C306.361 96.5682 281.993 93.7673 286.434 109.985C289.174 119.989 310.3 125.039 319 128M556 97.588C548.687 99.4712 545.821 107.375 544.616 114C541.712 129.961 541.332 149.088 544.665 165C546.306 172.832 549.658 183.696 560 181.591C567.838 179.996 570.444 171.891 571.739 165C574.793 148.752 575.309 130.246 571.996 114C570.458 106.459 565.892 95.0408 556 97.588M763 97.588C755.687 99.4712 752.821 107.375 751.616 114C748.712 129.961 748.332 149.088 751.665 165C753.306 172.832 756.658 183.696 767 181.591C774.838 179.996 777.444 171.891 778.739 165C781.793 148.752 782.309 130.246 778.996 114C777.458 106.459 772.892 95.0408 763 97.588M209 98L209 142C213.4 141.988 218.998 142.275 222.606 139.272C230.495 132.706 230.325 107.263 222.467 100.738C219.006 97.8643 213.243 98.0351 209 98M175 100L175 179C180.086 175.451 179 167.557 179 162L179 117C179 111.443 180.086 103.549 175 100M1023 126L1014 153L1033 153L1023 126z"/>
<path style="fill:#ffffff; stroke:none;" d="M319 165L319 177L320 177C321.402 172.456 321.951 168.987 319 165M716 177L716 185L736 185L736 177L716 177z"/>
<path style="fill:#000000; stroke:none;" d="M315 184L315 185L319 185L315 184M324 185L324 186L328 186L324 185M728 193L728 197L658 197L692.189 286L713 338C727.8 304.612 736.633 268.215 749.424 234C752.643 225.39 755.356 216.61 758.576 208C759.738 204.891 760.46 199.993 763.419 198.028C770.049 193.622 788.114 197 796 197L882 197L882 203C871.355 203 851.584 201.831 845.005 212.043C836.737 224.879 841 248.436 841 263L841 374C841 388.466 837.309 409.806 844.442 422.985C849.7 432.698 866.444 431.994 876 432L876 356L882 356L882 438L728 438L728 442L903 442L903 356L908 356C901.865 326.263 901.013 296.868 912.065 268C929.059 223.611 977.242 194 1024 194L997 193L937 193L728 193z"/>
<path style="fill:#008aff; stroke:none;" d="M1153 439C1153 413.37 1150.4 387.587 1152.83 362C1153.63 353.591 1151.57 342.876 1158.22 336.225C1164.89 329.561 1177.38 331.089 1186 330L1186 324L1031 324L1031 330C1041.88 331.375 1057.82 328.569 1065.61 338.044C1071.49 345.197 1071 357.243 1071 366C1071 386.687 1078.43 427.596 1050 432.672C1014.9 438.939 1005.27 398.281 1000.92 372C993.795 328.989 991.832 276.255 1011.26 236C1014.71 228.841 1018.46 221.834 1024.17 216.174C1055.64 184.966 1101.1 217.488 1119.66 246C1130.64 262.877 1138.5 282.385 1143 302L1150 302L1150 194L1142 194C1140.14 202.999 1137.19 221.228 1125 221.153C1119.21 221.117 1113.02 216.755 1108 214.247C1096.87 208.683 1085.89 203.138 1074 199.344C1033.78 186.506 985.37 192.901 951 217.745C879.037 269.765 889.416 396.625 972 433.138C998.845 445.007 1035.61 446.457 1063 435.396C1078.02 429.329 1091.29 415.573 1108 414.188C1118.95 413.281 1130.27 419.979 1137.83 427.289C1143.03 432.31 1145.07 438.741 1153 439z"/>
<path style="fill:#000000; stroke:none;" d="M1042 193L1042 194C1061.16 194.013 1080.04 200.775 1097 209.247C1104.92 213.204 1117.82 222.992 1127 221.272C1137.95 219.221 1140.76 203.221 1142 194L1042 193M1150 194L1150 302L1143 302C1140.16 282.688 1130.71 262.327 1120.3 246C1102.03 217.316 1056.02 185.012 1024.17 215.3C1020.08 219.191 1016.84 224.011 1014.26 229C992.159 271.68 993.248 326.684 1000.92 373C1005.43 400.24 1015.63 440.878 1052 432.471C1078.96 426.239 1071 384.411 1071 364C1071 355.69 1071.37 343.777 1065.61 337.108C1058.29 328.645 1041.14 330.8 1031 330L1031 324L1176 324L1176 194L1150 194M75 195L75 196L95 196L75 195z"/>
<path style="fill:#008aff; stroke:none;" d="M75 196L75 211C83.9239 211 97.5015 208.393 104.815 214.558C116.136 224.101 114 243.865 114 257C114 290.556 111.303 325.157 119.475 358C124.605 378.615 134.044 401.213 150.015 415.826C176.946 440.469 230.351 451.264 266 452C266 473.327 266.646 494.756 265.089 516C264.109 529.359 260.405 543.971 247.999 551.387C236.875 558.036 220.471 557 208 557L208 569L382 569L382 557C369.529 557 353.125 558.036 342.001 551.387C329.595 543.971 325.891 529.359 324.911 516C323.354 494.756 324 473.327 324 452C359.648 451.264 413.055 440.469 439.985 415.826C455.956 401.213 465.395 378.615 470.525 358C478.697 325.157 476 290.556 476 257C476 243.865 473.864 224.101 485.185 214.558C492.499 208.393 506.076 211 515 211L515 196C491.034 196 458.703 190.494 439.015 208.185C424.14 221.552 421.06 246.209 418.95 265C415.696 293.983 417.079 322.979 415.09 352C413.661 372.841 411.929 393.917 396.829 409.961C387.799 419.556 375.367 425.181 363 429.024C350.518 432.903 337.113 435.729 324 436L324 298C324 277.417 319.851 250.544 327.094 231C333.641 213.334 360.306 208.37 377 212L377 195L213 195L213 212C229.694 208.37 256.359 213.334 262.906 231C270.149 250.544 266 277.417 266 298L266 436C252.887 435.729 239.482 432.903 227 429.024C214.633 425.181 202.201 419.556 193.171 409.961C178.071 393.917 176.339 372.841 174.91 352C172.921 322.979 174.304 293.983 171.05 265C168.941 246.209 165.86 221.552 150.985 208.185C131.297 190.494 98.9659 196 75 196z"/>
<path style="fill:#000000; stroke:none;" d="M109 195L109 196C115.842 196.001 122.345 196.717 129 198.375C167.261 207.908 168.166 247.586 172.424 280C177.951 322.068 160.133 388.819 201 417.43C210.332 423.963 221.094 427.863 232 430.848C242.867 433.822 254.718 435.907 266 436L266 302C266 280.184 269.579 254.181 263.841 233C258.724 214.11 230.305 207.028 213 212L213 195L109 195M377 195L377 212C359.695 207.028 331.276 214.11 326.159 233C320.421 254.181 324 280.184 324 302L324 436C335.282 435.907 347.133 433.822 358 430.848C368.906 427.863 379.668 423.963 389 417.43C429.867 388.819 412.049 322.068 417.576 280C421.834 247.586 422.739 207.908 461 198.375C467.655 196.717 474.158 196.001 481 196L449 195L377 195M495 195L495 196L515 196L495 195z"/>
<path style="fill:#008aff; stroke:none;" d="M535 197L535 203C548.308 205.471 563.125 201.969 571.895 215.004C580.68 228.062 578 248.871 578 264L578 371C578 385.251 580.777 407.487 573.005 420C564.853 433.126 546.596 432 533 432L533 438L629 438L629 432C617.451 431.992 599.506 432.82 591.532 422.957C581.515 410.565 585 385.047 585 370L585 239C594.955 250.026 599.29 271.226 604.8 285C618.419 319.045 632.384 352.955 646 387C650.932 399.332 655.646 411.781 660.85 424C662.44 427.732 663.885 434.635 667.418 436.972C672.215 440.146 683.382 438 689 438L711.308 372L740.344 286L760 224L761 224C760.97 269.518 759 315.324 759 361C759 375.059 759.048 389.001 758.089 403C757.654 409.358 758.591 416.092 755.547 421.999C750.169 432.438 735.159 431.999 725 432L725 438L876 438L876 432C865.45 431.971 849.038 432.237 843.97 420.999C837.566 406.8 841 386.194 841 371L841 265C841 250.028 836.703 226.285 845.005 213.015C851.771 202.202 870.79 203 882 203L882 197L795 197C787.637 197 768.643 193.572 762.702 198.028C760.051 200.016 759.308 205.054 758.192 208C754.694 217.236 751.583 226.67 748.344 236C736.549 269.974 724.128 303.802 713 338C697.454 304.766 686.426 269.068 672.8 235C669.351 226.376 665.905 217.711 662.681 209C661.46 205.699 660.372 200.185 657.351 198.028C650.986 193.481 631.764 197 624 197L535 197z"/>
<path style="fill:#000000; stroke:none;" d="M536 203L536 432C548.293 432 565.645 432.807 573.005 420.999C580.789 408.512 578 386.231 578 372L578 263C578 247.95 580.732 226.965 571.895 214.015C563.577 201.826 548.516 205.324 536 203M75 211L75 356L119 356C114.615 322.041 114 289.317 114 255C114 242.631 115.983 223.785 105.671 214.558C98.5253 208.163 83.9011 211 75 211M471 356L515 356L515 211C506.099 211 491.475 208.163 484.329 214.558C474.017 223.785 476 242.631 476 255C476 289.317 475.386 322.041 471 356M760 224C748.54 273.535 728.352 323.109 711.308 371C703.777 392.159 692.277 415.807 689 438L725 438L725 432C734.586 432 750.382 432.912 755.547 422.995C761.94 410.722 759 389.529 759 376L759 272C759 260.937 759.557 250.028 760.039 239C760.26 233.969 762.018 228.81 760 224M585 239L585 372C585 386.524 581.552 412.096 591.532 423.895C599.356 433.144 617.964 431.999 629 432L629 438L667 438L608.8 294L593.2 255L585 239M1153 356L1176 356L1176 331C1158.74 331.143 1153.01 339.439 1153 356z"/>
<path style="fill:#ffffff; stroke:none;" d="M876 356L876 438L882 438L882 356L876 356z"/>
<path style="fill:#000000; stroke:none;" d="M119 358L119 492L208 492L208 557C220.736 557 237.639 558.225 248.996 551.387C260.882 544.23 264.154 529.757 265.089 517C266.67 495.427 266 473.657 266 452C238.809 450.833 209.409 443.523 184 434.05C170.523 429.026 157.035 422.826 147.171 411.996C132.222 395.584 129.879 375.807 119 358M470 358C459.07 410.812 413.134 441.742 361 446L361 447L471 447L471 385L470 358M908 358L908 442L1003 442L1003 441C970.27 439.591 939.785 415.525 922.698 389C916.418 379.251 914.009 367.55 908 358M1152 364L1152 415L1153 415C1153 400.689 1157.51 377.127 1152 364M1037 441L1037 442L1096 442L1096 439L1147 439C1144.59 433.924 1141.14 429.346 1136.91 425.616C1102.57 395.338 1073.12 440.254 1037 441M324 452C324 485.012 311.75 553.923 360 556L360 447L324 452M364 556L364 557L382 557L364 556z"/>
</svg>
